<svg width="128" height="128" viewBox="0 0 128 128" fill="none" xmlns="http://www.w3.org/2000/svg">
<path d="M16 53.3334C16 33.2201 16 23.1635 22.2484 16.9151C28.4968 10.6667 38.5534 10.6667 58.6667 10.6667H69.3333C89.4464 10.6667 99.5035 10.6667 105.751 16.9151C112 23.1635 112 33.2201 112 53.3334V74.6667C112 94.7797 112 104.837 105.751 111.085C99.5035 117.333 89.4464 117.333 69.3333 117.333H58.6667C38.5534 117.333 28.4968 117.333 22.2484 111.085C16 104.837 16 94.7797 16 74.6667V53.3334Z" stroke="#1E1E1E" stroke-width="8"/>
<path d="M42.6667 64H85.3334" stroke="#1E1E1E" stroke-width="8" stroke-linecap="round"/>
<path d="M42.6667 42.6667H85.3334" stroke="#1E1E1E" stroke-width="8" stroke-linecap="round"/>
<path d="M42.6667 85.3333H69.3334" stroke="#1E1E1E" stroke-width="8" stroke-linecap="round"/>
</svg>
