<svg width="128" height="128" viewBox="0 0 128 128" fill="none" xmlns="http://www.w3.org/2000/svg">
<path d="M10.6667 65.0875C10.6667 52.8826 10.6667 46.7802 13.4358 41.7213C16.2049 36.6625 21.2638 33.5227 31.3816 27.2434L42.0482 20.6233C52.7435 13.9856 58.0913 10.6667 64.0001 10.6667C69.9089 10.6667 75.2566 13.9856 85.9521 20.6233L96.6187 27.2433C106.737 33.5227 111.795 36.6625 114.564 41.7213C117.333 46.7802 117.333 52.8826 117.333 65.0875V73.2C117.333 94.0043 117.333 104.407 111.085 110.87C104.837 117.333 94.7798 117.333 74.6667 117.333H53.3334C33.2201 117.333 23.1635 117.333 16.9151 110.87C10.6667 104.407 10.6667 94.0043 10.6667 73.2V65.0875Z" stroke="#1E1E1E" stroke-width="8"/>
<path d="M80 96H48" stroke="#1E1E1E" stroke-width="8" stroke-linecap="round"/>
</svg>
