<svg width="128" height="128" viewBox="0 0 128 128" fill="none" xmlns="http://www.w3.org/2000/svg">
<g clip-path="url(#clip0_24_171)">
<path fill-rule="evenodd" clip-rule="evenodd" d="M86.9254 86.9254C102.016 82.3518 113 68.3337 113 51.75C113 31.4535 96.5465 15 76.25 15C59.6663 15 45.6482 25.9845 41.0746 41.0746C25.9845 45.6482 15 59.6663 15 76.25C15 96.5465 31.4535 113 51.75 113C68.3337 113 82.3517 102.016 86.9254 86.9254ZM76.25 88.5C79.9628 88.5 83.547 87.9494 86.9254 86.9254C87.9494 83.547 88.5 79.9628 88.5 76.25C88.5 55.9535 72.0465 39.5 51.75 39.5C48.0372 39.5 44.453 40.0506 41.0746 41.0746C40.0506 44.453 39.5 48.0372 39.5 51.75C39.5 72.0465 55.9535 88.5 76.25 88.5Z" fill="#1E1E1E"/>
</g>
<defs>
<clipPath id="clip0_24_171">
<rect width="98" height="98" fill="white" transform="translate(15 15)"/>
</clipPath>
</defs>
</svg>
