<svg width="128" height="128" viewBox="0 0 128 128" fill="none" xmlns="http://www.w3.org/2000/svg">
<path d="M64 52C57.384 52 52 57.384 52 64C52 70.616 57.384 76 64 76C70.616 76 76 70.616 76 64C76 57.384 70.616 52 64 52Z" fill="#1E1E1E"/>
<path d="M24 52C17.384 52 12 57.384 12 64C12 70.616 17.384 76 24 76C30.616 76 36 70.616 36 64C36 57.384 30.616 52 24 52Z" fill="#1E1E1E"/>
<path d="M104 52C97.384 52 92 57.384 92 64C92 70.616 97.384 76 104 76C110.616 76 116 70.616 116 64C116 57.384 110.616 52 104 52Z" fill="#1E1E1E"/>
</svg>
