<svg width="128" height="128" viewBox="0 0 128 128" fill="none" xmlns="http://www.w3.org/2000/svg">
<path d="M64 80C72.8366 80 80 72.8366 80 64C80 55.1634 72.8366 48 64 48C55.1634 48 48 55.1634 48 64C48 72.8366 55.1634 80 64 80Z" stroke="#1E1E1E" stroke-width="8"/>
<path d="M73.4154 11.4786C71.4548 10.6667 68.97 10.6667 63.9999 10.6667C59.0298 10.6667 56.545 10.6667 54.5844 11.4786C51.9709 12.5612 49.8944 14.6378 48.8118 17.2514C48.3176 18.4445 48.1242 19.832 48.0485 21.856C47.9373 24.8303 46.412 27.5834 43.8342 29.0716C41.2566 30.5598 38.1097 30.5042 35.4782 29.1134C33.6876 28.167 32.3893 27.6407 31.1089 27.4721C28.3041 27.1028 25.4675 27.8629 23.2232 29.5851C21.5399 30.8767 20.2973 33.0288 17.8123 37.333C15.3273 41.6372 14.0848 43.7892 13.8079 45.8929C13.4386 48.6976 14.1987 51.5342 15.9209 53.7787C16.7069 54.8032 17.8116 55.664 19.5263 56.7414C22.0468 58.3254 23.6687 61.0235 23.6685 64C23.6683 66.9766 22.0466 69.6741 19.5262 71.2576C17.8114 72.3355 16.7065 73.1968 15.9203 74.2214C14.1981 76.4656 13.4381 79.3019 13.8074 82.1067C14.0843 84.2102 15.3268 86.3627 17.8118 90.6667C20.2969 94.9707 21.5394 97.1232 23.2226 98.4144C25.467 100.137 28.3036 100.897 31.1084 100.527C32.3887 100.359 33.6869 99.8326 35.4774 98.8864C38.1091 97.4955 41.2562 97.44 43.834 98.928C46.4118 100.417 47.9373 103.17 48.0485 106.145C48.1242 108.168 48.3176 109.556 48.8118 110.749C49.8944 113.362 51.9709 115.439 54.5844 116.522C56.545 117.333 59.0298 117.333 63.9999 117.333C68.97 117.333 71.4548 117.333 73.4154 116.522C76.0287 115.439 78.1055 113.362 79.1876 110.749C79.682 109.556 79.8756 108.168 79.9514 106.144C80.0623 103.17 81.5876 100.417 84.1652 98.928C86.7428 97.4395 89.89 97.4955 92.522 98.8864C94.3124 99.8326 95.6106 100.358 96.8906 100.527C99.6954 100.897 102.532 100.137 104.776 98.4144C106.46 97.1227 107.702 94.9707 110.187 90.6662C112.672 86.3622 113.915 84.2102 114.192 82.1067C114.561 79.3019 113.801 76.4651 112.079 74.2208C111.293 73.1963 110.188 72.3349 108.473 71.2576C105.953 69.6741 104.331 66.976 104.331 63.9995C104.331 61.023 105.953 58.3259 108.473 56.7424C110.188 55.6646 111.293 54.8038 112.079 53.7787C113.802 51.5346 114.562 48.698 114.192 45.8932C113.916 43.7896 112.673 41.6375 110.188 37.3334C107.703 33.0292 106.46 30.8771 104.777 29.5855C102.533 27.8633 99.6959 27.1032 96.8911 27.4725C95.6111 27.641 94.313 28.1673 92.522 29.1136C89.8906 30.5045 86.7434 30.5601 84.1658 29.0718C81.5876 27.5835 80.0623 24.8302 79.9514 21.8557C79.8756 19.8319 79.682 18.4444 79.1876 17.2514C78.1055 14.6378 76.0287 12.5612 73.4154 11.4786Z" stroke="#1E1E1E" stroke-width="8"/>
</svg>
